<svg width="720" height="333" viewBox="0 0 720 333" fill="none" xmlns="http://www.w3.org/2000/svg">
    <rect x="103.495" y="124.004" width="82.8842" height="82.8842" rx="18" fill="url(#paint0_linear_203_285)"
          fill-opacity="0.4"/>
    <g opacity="0.8">
        <path d="M117.099 153.673L117.877 181.269L142.363 197.205L142.752 183.018L157.133 175.05L117.099 153.673Z"
              stroke="white" stroke-width="1.14314"/>
        <path d="M140.695 169.46L141.526 169.975C141.824 170.161 142.162 170.253 142.501 170.253C142.839 170.253 143.177 170.161 143.476 169.974L144.308 169.456L152.743 174.679L141.481 181.693C140.937 182.03 140.608 182.625 140.61 183.266L140.643 194.76L120.297 182.126L140.695 169.46V169.46ZM118.578 155.727L137.194 167.286L118.578 178.845V155.727ZM170.005 167.249C170.004 166.58 169.64 165.963 169.053 165.639C168.468 165.314 167.752 165.333 167.184 165.687L156.24 172.501L147.807 167.279L169.178 153.969C169.72 153.631 170.05 153.038 170.05 152.399C170.049 151.761 169.718 151.167 169.175 150.831L143.472 134.916C142.876 134.546 142.122 134.547 141.526 134.916L115.822 150.877C115.28 151.214 114.95 151.807 114.95 152.446C114.95 152.612 114.95 181.959 114.95 182.125C114.95 182.764 115.28 183.358 115.822 183.695L141.526 199.655C141.539 199.663 141.552 199.668 141.564 199.675C141.578 199.682 141.59 199.693 141.605 199.702C141.634 199.717 141.664 199.729 141.695 199.744C141.725 199.759 141.754 199.774 141.786 199.787C141.834 199.807 141.883 199.824 141.931 199.838C141.961 199.849 141.988 199.859 142.018 199.867C142.073 199.883 142.129 199.892 142.185 199.903C142.209 199.907 142.233 199.913 142.257 199.915C142.338 199.927 142.419 199.932 142.5 199.932C142.5 199.932 142.5 199.932 142.501 199.932C142.668 199.932 142.837 199.909 142.999 199.864C143.001 199.862 143.002 199.862 143.002 199.862C143.065 199.845 143.127 199.82 143.188 199.796C143.206 199.789 143.226 199.784 143.244 199.777C143.295 199.754 143.343 199.724 143.392 199.697C143.419 199.682 143.447 199.67 143.474 199.655L143.475 199.654C143.476 199.654 143.476 199.654 143.476 199.654L143.525 199.623L169.177 183.695C169.722 183.356 170.051 182.761 170.05 182.119L170.005 167.248"
              fill="white"/>
        <path opacity="0.78" d="M120.297 152.446L142.5 166.232L164.702 152.406L142.502 138.658L120.297 152.446"
              fill="#4945A4"/>
    </g>
    <rect x="42" y="238.972" width="49.9088" height="49.9088" rx="18" fill="url(#paint1_linear_203_285)"
          fill-opacity="0.4"/>
    <g opacity="0.7">
        <path d="M73.0721 249.771C74.2542 250.712 74.7153 251.934 74.7153 252.974V256.96H78.0256C79.2586 256.96 80.5104 257.494 81.3976 258.625C82.2849 259.753 82.8102 261.442 82.8102 263.704C82.8102 265.967 82.2849 267.655 81.3976 268.784C80.5104 269.915 79.2586 270.448 78.0256 270.448H67.9712V271.124H74.7153V274.434C74.7153 275.447 74.2515 276.667 73.0721 277.616C71.8901 278.565 70.0325 279.219 67.2957 279.219C64.559 279.219 62.7014 278.565 61.5194 277.616C60.34 276.667 59.8762 275.447 59.8762 274.434V270.448H56.5659C55.3329 270.448 54.0811 269.915 53.1939 268.784C52.3066 267.655 51.7812 265.967 51.7812 263.704C51.7812 261.442 52.3066 259.753 53.1939 258.625C54.0811 257.494 55.3329 256.96 56.5659 256.96H66.6203V256.285H59.8762V252.974C59.8762 251.961 60.34 250.742 61.5194 249.793C62.7014 248.844 64.559 248.19 67.2957 248.19C70.0298 248.19 71.8874 248.83 73.0721 249.771ZM62.3637 250.846C61.4845 251.548 61.2245 252.371 61.2245 252.974V254.936H67.9712V258.308H56.5659C55.7108 258.308 54.9174 258.644 54.2687 259.466C53.62 260.292 53.1295 261.651 53.1295 263.704C53.1295 265.757 53.62 267.116 54.2687 267.942C54.9174 268.765 55.7108 269.1 56.5659 269.1H59.8762V266.403C59.8762 266.17 59.895 265.948 59.9379 265.728C59.9835 265.508 60.0639 265.296 60.1496 265.095C60.6643 263.887 61.8598 263.029 63.2483 263.029H71.3432C72.461 263.029 73.367 262.123 73.367 261.005V252.974C73.367 252.328 73.1043 251.522 72.2278 250.825C71.354 250.13 69.8234 249.538 67.2957 249.538C64.7708 249.538 63.2402 250.141 62.3637 250.846ZM65.272 252.913C65.272 253.655 64.6662 254.261 63.9237 254.261C63.1812 254.261 62.5728 253.655 62.5728 252.913C62.5728 252.168 63.1812 251.562 63.9237 251.562C64.6662 251.562 65.272 252.168 65.272 252.913ZM74.7153 261.005C74.7153 262.857 73.1954 264.38 71.3432 264.38H63.2483C62.2699 264.38 61.4577 265.079 61.2674 266.001C61.2406 266.133 61.2245 266.261 61.2245 266.403V274.434C61.2245 275.037 61.4845 275.86 62.3637 276.562C63.2402 277.267 64.7708 277.87 67.2957 277.87C69.8207 277.87 71.3513 277.267 72.2278 276.562C73.107 275.86 73.367 275.037 73.367 274.434V272.472H66.6203V269.1H78.0256C78.8807 269.1 79.6741 268.765 80.3228 267.942C80.9715 267.116 81.462 265.757 81.462 263.704C81.462 261.651 80.9715 260.292 80.3228 259.466C79.6741 258.644 78.8807 258.308 78.0256 258.308H74.7153V261.005ZM72.0187 274.496C72.0187 275.241 71.4103 275.847 70.6678 275.847C69.9253 275.847 69.3195 275.241 69.3195 274.496C69.3195 273.753 69.9253 273.147 70.6678 273.147C71.4103 273.147 72.0187 273.753 72.0187 274.496Z"
              fill="white" stroke="white" stroke-width="0.38701" stroke-miterlimit="10" stroke-linejoin="round"/>
        <path d="M67.2957 248.19C64.559 248.19 62.7014 248.844 61.5194 249.793C60.34 250.742 59.8762 251.961 59.8762 252.974V256.285H66.6203V256.96H56.5659C55.3329 256.96 54.0811 257.494 53.1939 258.625C52.3066 259.753 51.7812 261.442 51.7812 263.704C51.7812 265.967 52.3066 267.655 53.1939 268.784C54.0811 269.915 55.3329 270.448 56.5659 270.448H59.8762V274.434C59.8762 275.447 60.34 276.667 61.5194 277.616C62.7014 278.565 64.559 279.219 67.2957 279.219C70.0325 279.219 71.89 278.565 73.0721 277.616C74.2515 276.667 74.7152 275.447 74.7152 274.434V271.124H67.9712V270.448H78.0256C79.2586 270.448 80.5104 269.915 81.3976 268.784C82.2849 267.655 82.8102 265.967 82.8102 263.704C82.8102 261.442 82.2849 259.753 81.3976 258.625C80.5104 257.494 79.2586 256.96 78.0256 256.96H74.7152V252.974C74.7152 251.934 74.2542 250.712 73.0721 249.771C71.8874 248.83 70.0298 248.19 67.2957 248.19ZM67.2957 249.538C69.8234 249.538 71.3539 250.13 72.2278 250.825C73.1043 251.522 73.367 252.328 73.367 252.974V261.005C73.367 262.123 72.461 263.029 71.3432 263.029H63.2482C61.8598 263.029 60.6643 263.886 60.1496 265.095C60.0639 265.296 59.9834 265.508 59.9379 265.728C59.895 265.948 59.8762 266.17 59.8762 266.403V269.1H56.5659C55.7108 269.1 54.9174 268.765 54.2687 267.942C53.62 267.116 53.1295 265.757 53.1295 263.704C53.1295 261.651 53.62 260.292 54.2687 259.466C54.9174 258.644 55.7108 258.308 56.5659 258.308H67.9712V254.936H61.2245V252.974C61.2245 252.371 61.4845 251.548 62.3637 250.846C63.2402 250.141 64.7707 249.538 67.2957 249.538ZM63.9237 251.562C63.1812 251.562 62.5728 252.168 62.5728 252.913C62.5728 253.655 63.1812 254.261 63.9237 254.261C64.6662 254.261 65.272 253.655 65.272 252.913C65.272 252.168 64.6662 251.562 63.9237 251.562ZM74.7152 258.308H78.0256C78.8807 258.308 79.6741 258.644 80.3228 259.466C80.9714 260.292 81.462 261.651 81.462 263.704C81.462 265.757 80.9714 267.116 80.3228 267.942C79.6741 268.765 78.8807 269.1 78.0256 269.1H66.6203V272.472H73.367V274.434C73.367 275.037 73.107 275.86 72.2278 276.562C71.3513 277.267 69.8207 277.87 67.2957 277.87C64.7707 277.87 63.2402 277.267 62.3637 276.562C61.4845 275.86 61.2245 275.037 61.2245 274.434V266.403C61.2245 266.261 61.2406 266.133 61.2674 266.001C61.4577 265.079 62.2699 264.38 63.2482 264.38H71.3432C73.1954 264.38 74.7152 262.857 74.7152 261.005V258.308ZM70.6678 273.147C69.9253 273.147 69.3195 273.753 69.3195 274.496C69.3195 275.241 69.9253 275.847 70.6678 275.847C71.4102 275.847 72.0187 275.241 72.0187 274.496C72.0187 273.753 71.4102 273.147 70.6678 273.147Z"
              fill="white"/>
    </g>
    <rect x="57.1509" y="29.5333" width="62.386" height="62.386" rx="18" fill="url(#paint2_linear_203_285)"
          fill-opacity="0.4"/>
    <path opacity="0.8"
          d="M82.9413 79.4395C80.7594 78.4926 78.7176 76.0856 78.7129 73.6227C78.707 70.9376 80.4016 68.6579 82.5092 67.1597C82.2558 68.1209 82.1176 69.0002 82.7453 69.86C83.329 70.6595 84.351 71.048 85.316 70.8371C87.5711 70.3415 87.6744 67.8521 86.3376 66.4019C85.0159 64.9657 83.7372 63.3434 84.2403 61.2605C84.4922 60.2165 85.1306 59.2386 85.9393 58.5396C85.3178 60.18 87.0841 61.7979 88.2481 62.6037C90.2671 64.0018 92.4821 65.0584 94.3385 66.6973C96.2913 68.4197 97.7333 70.7489 97.442 73.4499C97.1265 76.3777 94.8096 78.414 92.2111 79.4421C97.7024 78.2249 103.377 73.9451 103.493 67.8292C103.589 62.7979 100.152 58.9259 95.8942 56.709L95.6717 56.5871C95.7886 56.8718 95.8269 57.1141 95.8224 57.3309C95.8607 57.171 95.8864 57.0066 95.8938 56.8371C95.8919 57.048 95.8651 57.247 95.8158 57.4339L95.8224 57.3309C95.7585 57.6023 95.6511 57.8545 95.5073 58.0853L95.5698 58.0178C94.7203 59.4325 92.4207 59.7398 91.2847 58.2748C89.4584 55.9183 91.3229 53.3776 91.5837 50.8822C91.9102 47.7547 89.9571 44.7187 87.5354 42.9017C88.8692 45.0684 87.1121 47.9349 85.7062 49.5372C84.3429 51.0909 82.685 52.3878 81.1802 53.7993C79.5635 55.3152 78.0093 56.9121 76.6806 58.6913C74.0232 62.2525 72.3962 66.7313 73.5918 71.1743C74.7867 75.614 78.6165 78.4402 82.9413 79.4395Z"
          fill="white"/>
    <g filter="url(#filter0_f_203_285)">
        <rect x="-30" y="134" width="44" height="44" rx="18" fill="url(#paint3_linear_203_285)" fill-opacity="0.4"/>
    </g>
    <rect x="687" y="15" width="65" height="65" rx="18" fill="url(#paint4_linear_203_285)" fill-opacity="0.4"/>
    <g filter="url(#filter1_f_203_285)">
        <rect x="663" y="216" width="46" height="46" rx="18" fill="url(#paint5_linear_203_285)" fill-opacity="0.4"/>
    </g>
    <g filter="url(#filter2_f_203_285)">
        <rect x="706" y="288" width="37" height="37" rx="18" fill="url(#paint6_linear_203_285)" fill-opacity="0.4"/>
    </g>
    <g filter="url(#filter3_f_203_285)">
        <rect x="518" y="8" width="28" height="28" rx="14" fill="url(#paint7_linear_203_285)" fill-opacity="0.4"/>
    </g>
    <g filter="url(#filter4_f_203_285)">
        <rect x="705" y="137" width="22" height="22" rx="11" fill="url(#paint8_linear_203_285)" fill-opacity="0.4"/>
    </g>
    <rect x="553.312" y="248.775" width="82.6877" height="82.6877" rx="30.3642" fill="url(#paint9_linear_203_285)"
          fill-opacity="0.4"/>
    <g opacity="0.6">
        <path d="M582.105 272.221C582.105 275.104 579.842 277.443 577.053 277.443C574.263 277.443 572 275.104 572 272.221C572 269.337 574.263 267 577.053 267C579.842 267 582.105 269.337 582.105 272.221Z"
              fill="white"/>
        <path d="M582.105 290.014C582.105 292.897 579.842 295.236 577.053 295.236C574.263 295.236 572 292.897 572 290.014C572 287.13 574.263 284.793 577.053 284.793C579.842 284.793 582.105 287.13 582.105 290.014Z"
              fill="white"/>
        <path d="M582.105 307.807C582.105 310.69 579.842 313.028 577.053 313.028C574.263 313.028 572 310.69 572 307.807C572 304.924 574.263 302.586 577.053 302.586C579.842 302.586 582.105 304.924 582.105 307.807Z"
              fill="white"/>
        <path d="M599.735 290.014C599.735 292.897 597.474 295.236 594.684 295.236C591.893 295.236 589.63 292.897 589.63 290.014C589.63 287.13 591.893 284.793 594.684 284.793C597.474 284.793 599.735 287.13 599.735 290.014Z"
              fill="white"/>
        <path d="M599.735 272.221C599.735 275.104 597.474 277.443 594.684 277.443C591.893 277.443 589.63 275.104 589.63 272.221C589.63 269.337 591.893 267 594.684 267C597.474 267 599.735 269.337 599.735 272.221"
              fill="white"/>
        <path d="M617.367 290.014C617.367 292.897 615.104 295.236 612.314 295.236C609.523 295.236 607.262 292.897 607.262 290.014C607.262 287.13 609.523 284.793 612.314 284.793C615.104 284.793 617.367 287.13 617.367 290.014Z"
              fill="white"/>
        <path d="M617.367 272.221C617.367 275.104 615.104 277.443 612.314 277.443C609.523 277.443 607.262 275.104 607.262 272.221C607.262 269.337 609.523 267 612.314 267C615.104 267 617.367 269.337 617.367 272.221"
              fill="white"/>
        <path d="M617.367 307.807C617.367 310.69 615.104 313.028 612.314 313.028C609.523 313.028 607.262 310.69 607.262 307.807C607.262 304.924 609.523 302.586 612.314 302.586C615.104 302.586 617.367 304.924 617.367 307.807Z"
              fill="white"/>
        <path d="M599.735 307.807C599.735 310.69 597.474 313.028 594.684 313.028C591.893 313.028 589.63 310.69 589.63 307.807C589.63 304.924 591.893 302.586 594.684 302.586C597.474 302.586 599.735 304.924 599.735 307.807Z"
              fill="white"/>
    </g>
    <rect x="531.923" y="87.4632" width="114.077" height="114.077" rx="18" fill="url(#paint10_linear_203_285)"
          fill-opacity="0.4"/>
    <g opacity="0.9" clip-path="url(#clip0_203_285)">
        <mask id="mask0_203_285" style="mask-type:alpha" maskUnits="userSpaceOnUse" x="544" y="102" width="86"
              height="86">
            <path fill-rule="evenodd" clip-rule="evenodd"
                  d="M604.984 187.413C606.339 187.94 607.883 187.907 609.25 187.249L626.956 178.729C628.817 177.834 630 175.951 630 173.885V116.115C630 114.05 628.817 112.167 626.956 111.271L609.25 102.751C607.456 101.888 605.356 102.1 603.782 103.244C603.557 103.408 603.342 103.591 603.141 103.792L569.245 134.716L554.481 123.508C553.107 122.465 551.184 122.55 549.908 123.712L545.172 128.019C543.611 129.44 543.609 131.896 545.168 133.319L557.973 145L545.168 156.682C543.609 158.104 543.611 160.561 545.172 161.981L549.908 166.289C551.184 167.45 553.107 167.535 554.481 166.492L569.245 155.284L603.141 186.208C603.678 186.745 604.307 187.149 604.984 187.413ZM608.513 125.477L582.794 145L608.513 164.523V125.477Z"
                  fill="white"/>
        </mask>
        <g mask="url(#mask0_203_285)">
            <path d="M626.957 111.285L609.237 102.753C607.186 101.766 604.735 102.182 603.125 103.792L545.117 156.682C543.557 158.104 543.558 160.561 545.121 161.981L549.859 166.289C551.136 167.45 553.06 167.535 554.435 166.492L624.29 113.498C626.634 111.72 630 113.392 630 116.334V116.128C630 114.063 628.817 112.181 626.957 111.285Z"
                  fill="#706CAB"/>
            <g filter="url(#filter5_d_203_285)">
                <path d="M626.957 178.715L609.237 187.247C607.186 188.235 604.735 187.818 603.125 186.208L545.117 133.319C543.557 131.896 543.558 129.439 545.121 128.019L549.859 123.712C551.136 122.55 553.06 122.465 554.435 123.508L624.29 176.502C626.634 178.28 630 176.608 630 173.667V173.872C630 175.937 628.817 177.819 626.957 178.715Z"
                      fill="#8380C5"/>
            </g>
            <g filter="url(#filter6_d_203_285)">
                <path d="M609.238 187.249C607.186 188.236 604.735 187.818 603.125 186.208C605.109 188.192 608.5 186.787 608.5 183.982V106.018C608.5 103.213 605.109 101.808 603.125 103.792C604.735 102.182 607.186 101.765 609.238 102.751L626.954 111.271C628.816 112.167 630 114.05 630 116.115V173.885C630 175.951 628.816 177.834 626.954 178.729L609.238 187.249Z"
                      fill="#9F9BEE"/>
            </g>
            <g style="mix-blend-mode:overlay" opacity="0.25">
                <path style="mix-blend-mode:overlay" opacity="0.2" fill-rule="evenodd" clip-rule="evenodd"
                      d="M604.932 187.413C606.286 187.94 607.831 187.907 609.198 187.249L626.904 178.729C628.765 177.834 629.948 175.951 629.948 173.885V116.115C629.948 114.05 628.765 112.167 626.904 111.271L609.198 102.751C607.404 101.888 605.304 102.1 603.729 103.244C603.504 103.408 603.29 103.59 603.089 103.792L569.193 134.716L554.429 123.508C553.054 122.465 551.132 122.55 549.855 123.712L545.12 128.019C543.559 129.44 543.557 131.896 545.116 133.319L557.92 145L545.116 156.682C543.557 158.104 543.559 160.561 545.12 161.981L549.855 166.288C551.132 167.45 553.054 167.535 554.429 166.492L569.193 155.284L603.089 186.208C603.625 186.745 604.255 187.149 604.932 187.413ZM608.461 125.477L582.742 145L608.461 164.523V125.477Z"
                      fill="url(#paint11_linear_203_285)"/>
            </g>
        </g>
    </g>
    <rect x="237" y="45" width="242" height="242" rx="27" fill="url(#paint12_linear_203_285)" fill-opacity="0.4"/>
    <path d="M296.652 140.981H276.947V163.437H296.652C303.412 163.437 308.143 159.845 308.143 152.26C308.143 144.973 303.508 140.981 296.652 140.981ZM303.508 172.422L317.318 200.968H305.634L292.207 173.321H276.947V200.968H267V131.097H296.652C308.435 131.097 318.382 137.587 318.382 151.96C318.382 163.139 312.684 170.026 303.508 172.422Z"
          fill="white"/>
    <path d="M359.431 140.482C347.648 140.482 341.177 150.363 341.177 166.034C341.177 181.705 347.648 191.586 359.431 191.586C371.311 191.586 377.782 181.705 377.782 166.034C377.782 150.363 371.311 140.482 359.431 140.482ZM359.431 202.065C341.952 202.065 330.844 187.194 330.844 166.034C330.844 144.874 341.952 130 359.431 130C377.01 130 388.115 144.874 388.115 166.034C388.115 187.194 377.01 202.065 359.431 202.065Z"
          fill="white"/>
    <path d="M422.986 202.065C413.132 202.065 404.635 197.673 398.937 190.786L406.179 183.5C410.72 188.592 417.384 191.784 423.758 191.784C433.223 191.784 437.761 188.391 437.761 181.603C437.761 176.213 433.802 173.519 422.501 170.026C408.208 165.634 401.352 161.94 401.352 149.464C401.352 137.386 411.202 130 423.661 130C432.837 130 439.79 133.496 445.778 139.484L438.632 146.969C434.381 142.478 429.553 140.281 422.889 140.281C414.969 140.281 411.588 144.273 411.588 148.965C411.588 153.856 414.679 156.252 426.366 159.845C439.693 164.038 448 168.43 448 180.905C448 193.483 440.272 202.065 422.986 202.065Z"
          fill="white"/>
    <defs>
        <filter id="filter0_f_203_285" x="-38" y="126" width="60" height="60" filterUnits="userSpaceOnUse"
                color-interpolation-filters="sRGB">
            <feFlood flood-opacity="0" result="BackgroundImageFix"/>
            <feBlend mode="normal" in="SourceGraphic" in2="BackgroundImageFix" result="shape"/>
            <feGaussianBlur stdDeviation="4" result="effect1_foregroundBlur_203_285"/>
        </filter>
        <filter id="filter1_f_203_285" x="655" y="208" width="62" height="62" filterUnits="userSpaceOnUse"
                color-interpolation-filters="sRGB">
            <feFlood flood-opacity="0" result="BackgroundImageFix"/>
            <feBlend mode="normal" in="SourceGraphic" in2="BackgroundImageFix" result="shape"/>
            <feGaussianBlur stdDeviation="4" result="effect1_foregroundBlur_203_285"/>
        </filter>
        <filter id="filter2_f_203_285" x="698" y="280" width="53" height="53" filterUnits="userSpaceOnUse"
                color-interpolation-filters="sRGB">
            <feFlood flood-opacity="0" result="BackgroundImageFix"/>
            <feBlend mode="normal" in="SourceGraphic" in2="BackgroundImageFix" result="shape"/>
            <feGaussianBlur stdDeviation="4" result="effect1_foregroundBlur_203_285"/>
        </filter>
        <filter id="filter3_f_203_285" x="510" y="0" width="44" height="44" filterUnits="userSpaceOnUse"
                color-interpolation-filters="sRGB">
            <feFlood flood-opacity="0" result="BackgroundImageFix"/>
            <feBlend mode="normal" in="SourceGraphic" in2="BackgroundImageFix" result="shape"/>
            <feGaussianBlur stdDeviation="4" result="effect1_foregroundBlur_203_285"/>
        </filter>
        <filter id="filter4_f_203_285" x="697" y="129" width="38" height="38" filterUnits="userSpaceOnUse"
                color-interpolation-filters="sRGB">
            <feFlood flood-opacity="0" result="BackgroundImageFix"/>
            <feBlend mode="normal" in="SourceGraphic" in2="BackgroundImageFix" result="shape"/>
            <feGaussianBlur stdDeviation="4" result="effect1_foregroundBlur_203_285"/>
        </filter>
        <filter id="filter5_d_203_285" x="536.781" y="115.613" width="100.386" height="79.3313"
                filterUnits="userSpaceOnUse" color-interpolation-filters="sRGB">
            <feFlood flood-opacity="0" result="BackgroundImageFix"/>
            <feColorMatrix in="SourceAlpha" type="matrix" values="0 0 0 0 0 0 0 0 0 0 0 0 0 0 0 0 0 0 127 0"
                           result="hardAlpha"/>
            <feOffset/>
            <feGaussianBlur stdDeviation="3.58334"/>
            <feColorMatrix type="matrix" values="0 0 0 0 0 0 0 0 0 0 0 0 0 0 0 0 0 0 0.25 0"/>
            <feBlend mode="overlay" in2="BackgroundImageFix" result="effect1_dropShadow_203_285"/>
            <feBlend mode="normal" in="SourceGraphic" in2="effect1_dropShadow_203_285" result="shape"/>
        </filter>
        <filter id="filter6_d_203_285" x="595.958" y="95.055" width="41.2083" height="99.8901"
                filterUnits="userSpaceOnUse" color-interpolation-filters="sRGB">
            <feFlood flood-opacity="0" result="BackgroundImageFix"/>
            <feColorMatrix in="SourceAlpha" type="matrix" values="0 0 0 0 0 0 0 0 0 0 0 0 0 0 0 0 0 0 127 0"
                           result="hardAlpha"/>
            <feOffset/>
            <feGaussianBlur stdDeviation="3.58334"/>
            <feColorMatrix type="matrix" values="0 0 0 0 0 0 0 0 0 0 0 0 0 0 0 0 0 0 0.25 0"/>
            <feBlend mode="overlay" in2="BackgroundImageFix" result="effect1_dropShadow_203_285"/>
            <feBlend mode="normal" in="SourceGraphic" in2="effect1_dropShadow_203_285" result="shape"/>
        </filter>
        <linearGradient id="paint0_linear_203_285" x1="144.937" y1="124.004" x2="144.937" y2="206.888"
                        gradientUnits="userSpaceOnUse">
            <stop stop-color="#4F46E5"/>
            <stop offset="1" stop-color="#4F46E5" stop-opacity="0"/>
        </linearGradient>
        <linearGradient id="paint1_linear_203_285" x1="66.9544" y1="238.972" x2="66.9544" y2="288.881"
                        gradientUnits="userSpaceOnUse">
            <stop stop-color="#4F46E5"/>
            <stop offset="1" stop-color="#4F46E5" stop-opacity="0"/>
        </linearGradient>
        <linearGradient id="paint2_linear_203_285" x1="88.3439" y1="29.5333" x2="88.3439" y2="91.9193"
                        gradientUnits="userSpaceOnUse">
            <stop stop-color="#4F46E5"/>
            <stop offset="1" stop-color="#4F46E5" stop-opacity="0"/>
        </linearGradient>
        <linearGradient id="paint3_linear_203_285" x1="-8" y1="134" x2="-8" y2="178" gradientUnits="userSpaceOnUse">
            <stop stop-color="#6B63EB"/>
            <stop offset="1" stop-color="#4F46E5" stop-opacity="0"/>
        </linearGradient>
        <linearGradient id="paint4_linear_203_285" x1="719.5" y1="15" x2="719.5" y2="80" gradientUnits="userSpaceOnUse">
            <stop stop-color="#4F46E5"/>
            <stop offset="1" stop-color="#4F46E5" stop-opacity="0"/>
        </linearGradient>
        <linearGradient id="paint5_linear_203_285" x1="686" y1="216" x2="686" y2="262" gradientUnits="userSpaceOnUse">
            <stop stop-color="#6B63EB"/>
            <stop offset="1" stop-color="#4F46E5" stop-opacity="0"/>
        </linearGradient>
        <linearGradient id="paint6_linear_203_285" x1="724.5" y1="288" x2="724.5" y2="325"
                        gradientUnits="userSpaceOnUse">
            <stop stop-color="#6B63EB"/>
            <stop offset="1" stop-color="#4F46E5" stop-opacity="0"/>
        </linearGradient>
        <linearGradient id="paint7_linear_203_285" x1="532" y1="8" x2="532" y2="36" gradientUnits="userSpaceOnUse">
            <stop stop-color="#6B63EB"/>
            <stop offset="1" stop-color="#4F46E5" stop-opacity="0"/>
        </linearGradient>
        <linearGradient id="paint8_linear_203_285" x1="716" y1="137" x2="716" y2="159" gradientUnits="userSpaceOnUse">
            <stop stop-color="#6B63EB"/>
            <stop offset="1" stop-color="#4F46E5" stop-opacity="0"/>
        </linearGradient>
        <linearGradient id="paint9_linear_203_285" x1="594.656" y1="248.775" x2="594.656" y2="331.463"
                        gradientUnits="userSpaceOnUse">
            <stop stop-color="#4F46E5"/>
            <stop offset="1" stop-color="#4F46E5" stop-opacity="0"/>
        </linearGradient>
        <linearGradient id="paint10_linear_203_285" x1="588.961" y1="87.4632" x2="588.961" y2="201.54"
                        gradientUnits="userSpaceOnUse">
            <stop stop-color="#4F46E5"/>
            <stop offset="1" stop-color="#4F46E5" stop-opacity="0"/>
        </linearGradient>
        <linearGradient id="paint11_linear_203_285" x1="586.948" y1="102.222" x2="586.948" y2="187.778"
                        gradientUnits="userSpaceOnUse">
            <stop stop-color="white"/>
            <stop offset="1" stop-color="white" stop-opacity="0"/>
        </linearGradient>
        <linearGradient id="paint12_linear_203_285" x1="358" y1="45" x2="358" y2="287" gradientUnits="userSpaceOnUse">
            <stop stop-color="#4F46E5"/>
            <stop offset="1" stop-color="#4F46E5" stop-opacity="0.47"/>
        </linearGradient>
        <clipPath id="clip0_203_285">
            <rect width="86" height="86" fill="white" transform="translate(544 102)"/>
        </clipPath>
    </defs>
</svg>
